<mxfile host="65bd71144e">
    <diagram id="GMVZOSqCNO6xm30EClCs" name="Page-1">
        <mxGraphModel dx="662" dy="513" grid="1" gridSize="10" guides="1" tooltips="1" connect="1" arrows="1" fold="1" page="1" pageScale="1" pageWidth="850" pageHeight="1100" math="0" shadow="0">
            <root>
                <mxCell id="0"/>
                <mxCell id="1" parent="0"/>
                <mxCell id="10" style="edgeStyle=none;html=1;entryX=0.5;entryY=0;entryDx=0;entryDy=0;" edge="1" parent="1" source="2" target="4">
                    <mxGeometry relative="1" as="geometry"/>
                </mxCell>
                <mxCell id="2" value="INICIO" style="ellipse;whiteSpace=wrap;html=1;" vertex="1" parent="1">
                    <mxGeometry x="280" y="220" width="120" height="80" as="geometry"/>
                </mxCell>
                <UserObject label="#Nombre: Brandon de Jesus Garza Jasso            Matricula: 250218
&#xa;#7
&#xa;#Calcular la edad
&#xa;
&#xa;from datetime import datetime as da
&#xa;
&#xa;nacimiento =da.strptime(
&#xa;    input(&quot;Ingrese su fecha de nacimiento: (dd-mm-aaaa)&quot;),
&#xa;    &quot;%d-%m-%Y&quot; )
&#xa;edad = da.now().year - nacimiento.year
&#xa;
&#xa;cumplio = (da.now().month, da.now().day) &gt;= (nacimiento.month, nacimiento.day)
&#xa;if not cumplio: edad -= 1
&#xa;print(f&quot;Tienes {edad} años&quot;)" link="#Nombre: Brandon de Jesus Garza Jasso            Matricula: 250218
&#xa;#7
&#xa;#Calcular la edad
&#xa;
&#xa;from datetime import datetime as da
&#xa;
&#xa;nacimiento =da.strptime(
&#xa;    input(&quot;Ingrese su fecha de nacimiento: (dd-mm-aaaa)&quot;),
&#xa;    &quot;%d-%m-%Y&quot; )
&#xa;edad = da.now().year - nacimiento.year
&#xa;
&#xa;cumplio = (da.now().month, da.now().day) &gt;= (nacimiento.month, nacimiento.day)
&#xa;if not cumplio: edad -= 1
&#xa;print(f&quot;Tienes {edad} años&quot;)" id="3">
                    <mxCell style="text;whiteSpace=wrap;html=1;" vertex="1" parent="1">
                        <mxGeometry x="20" width="470" height="220" as="geometry"/>
                    </mxCell>
                </UserObject>
                <mxCell id="11" style="edgeStyle=none;html=1;" edge="1" parent="1" source="4" target="6">
                    <mxGeometry relative="1" as="geometry"/>
                </mxCell>
                <mxCell id="4" value="int edad&lt;div&gt;int nacimiento&lt;/div&gt;&lt;div&gt;int cumplio&lt;/div&gt;" style="rounded=0;whiteSpace=wrap;html=1;" vertex="1" parent="1">
                    <mxGeometry x="280" y="331" width="120" height="60" as="geometry"/>
                </mxCell>
                <mxCell id="7" style="edgeStyle=none;html=1;exitX=0.5;exitY=1;exitDx=0;exitDy=0;" edge="1" parent="1" source="6">
                    <mxGeometry relative="1" as="geometry">
                        <mxPoint x="330" y="490" as="targetPoint"/>
                    </mxGeometry>
                </mxCell>
                <mxCell id="12" style="edgeStyle=none;html=1;" edge="1" parent="1" source="6" target="8">
                    <mxGeometry relative="1" as="geometry"/>
                </mxCell>
                <mxCell id="6" value="&quot;Ingrese su fecha de nacimiiento dd/mm/aaaa&quot;, nacimiento&lt;div&gt;&lt;br&gt;&lt;/div&gt;&lt;div&gt;&lt;br&gt;&lt;/div&gt;" style="shape=parallelogram;perimeter=parallelogramPerimeter;whiteSpace=wrap;html=1;fixedSize=1;" vertex="1" parent="1">
                    <mxGeometry x="225" y="420" width="245" height="80" as="geometry"/>
                </mxCell>
                <mxCell id="25" style="edgeStyle=none;html=1;entryX=0.5;entryY=0;entryDx=0;entryDy=0;" edge="1" parent="1" source="8" target="13">
                    <mxGeometry relative="1" as="geometry"/>
                </mxCell>
                <mxCell id="8" value="edad = da.now().year - nacimiento.year&#xa;cumplio = (da.now().month, da.now().day) &gt;= (nacimiento.month, nacimiento.day)" style="rounded=0;fillColor=default;fontColor=default;" vertex="1" parent="1">
                    <mxGeometry x="119" y="530" width="442" height="90" as="geometry"/>
                </mxCell>
                <mxCell id="13" value="cumplio: edad -= 1" style="rhombus;fontColor=default;" vertex="1" parent="1">
                    <mxGeometry x="271.5" y="660" width="152" height="120" as="geometry"/>
                </mxCell>
                <mxCell id="14" value="si" style="text;html=1;align=center;verticalAlign=middle;resizable=0;points=[];autosize=1;strokeColor=none;fillColor=none;" vertex="1" parent="1">
                    <mxGeometry x="435" y="678" width="30" height="30" as="geometry"/>
                </mxCell>
                <mxCell id="15" value="no" style="text;html=1;align=center;verticalAlign=middle;resizable=0;points=[];autosize=1;strokeColor=none;fillColor=none;" vertex="1" parent="1">
                    <mxGeometry x="230" y="678" width="40" height="30" as="geometry"/>
                </mxCell>
                <mxCell id="21" style="edgeStyle=none;html=1;" edge="1" parent="1" source="16">
                    <mxGeometry relative="1" as="geometry">
                        <mxPoint x="565" y="900" as="targetPoint"/>
                    </mxGeometry>
                </mxCell>
                <mxCell id="16" value="print(f&quot;Tienes {edad} años&quot;)" style="shape=document;boundedLbl=1;" vertex="1" parent="1">
                    <mxGeometry x="480" y="740" width="170" height="80" as="geometry"/>
                </mxCell>
                <mxCell id="17" value="" style="endArrow=none;html=1;" edge="1" parent="1">
                    <mxGeometry width="50" height="50" relative="1" as="geometry">
                        <mxPoint x="420" y="720" as="sourcePoint"/>
                        <mxPoint x="580" y="710" as="targetPoint"/>
                    </mxGeometry>
                </mxCell>
                <mxCell id="18" value="" style="endArrow=classic;html=1;" edge="1" parent="1" target="16">
                    <mxGeometry width="50" height="50" relative="1" as="geometry">
                        <mxPoint x="580" y="710" as="sourcePoint"/>
                        <mxPoint x="630" y="660" as="targetPoint"/>
                    </mxGeometry>
                </mxCell>
                <mxCell id="19" value="" style="endArrow=none;html=1;" edge="1" parent="1">
                    <mxGeometry width="50" height="50" relative="1" as="geometry">
                        <mxPoint x="180" y="720" as="sourcePoint"/>
                        <mxPoint x="270" y="720" as="targetPoint"/>
                    </mxGeometry>
                </mxCell>
                <mxCell id="20" value="" style="endArrow=classic;html=1;" edge="1" parent="1">
                    <mxGeometry width="50" height="50" relative="1" as="geometry">
                        <mxPoint x="180" y="720" as="sourcePoint"/>
                        <mxPoint x="180" y="890" as="targetPoint"/>
                    </mxGeometry>
                </mxCell>
                <mxCell id="22" value="" style="endArrow=none;html=1;" edge="1" parent="1">
                    <mxGeometry width="50" height="50" relative="1" as="geometry">
                        <mxPoint x="180" y="890" as="sourcePoint"/>
                        <mxPoint x="560" y="890" as="targetPoint"/>
                    </mxGeometry>
                </mxCell>
                <mxCell id="23" value="" style="endArrow=classic;html=1;" edge="1" parent="1">
                    <mxGeometry width="50" height="50" relative="1" as="geometry">
                        <mxPoint x="370" y="890" as="sourcePoint"/>
                        <mxPoint x="370" y="940" as="targetPoint"/>
                    </mxGeometry>
                </mxCell>
                <mxCell id="24" value="FIN" style="ellipse;whiteSpace=wrap;html=1;" vertex="1" parent="1">
                    <mxGeometry x="310" y="940" width="120" height="80" as="geometry"/>
                </mxCell>
            </root>
        </mxGraphModel>
    </diagram>
</mxfile>